<svg width="125" height="61" viewBox="0 0 125 61" fill="none" xmlns="http://www.w3.org/2000/svg">
<path d="M56.9907 32.7359C56.8701 34.4541 56.1768 36.1722 54.9108 37.8904H56.3577L49.0328 44.0849H48.9876C48.8067 44.2959 48.6259 44.4768 48.445 44.6275C47.5708 45.4715 46.4555 46.5718 45.0991 47.9282C43.0795 45.9388 41.3161 44.0548 39.8089 42.2763L35.8751 46.1648C35.0914 46.9486 34.1117 47.4158 32.9361 47.5665C32.8759 49.4957 32.062 51.2742 30.4945 52.9019L24.3 59.0964C22.6421 60.6337 20.4266 61.2366 17.6534 60.905C14.8802 60.6036 12.0768 59.5787 9.24331 57.8304C6.43996 56.0821 4.13397 53.8213 2.32536 51.0481C0.516747 48.2749 -0.236842 45.2002 0.0645933 41.8242C0.396173 38.4179 2.29522 34.9062 5.76173 31.289L9.96675 27.084C9.9969 27.0538 10.027 27.0538 10.0572 27.084C10.0873 27.1141 10.1024 27.1443 10.1024 27.1744C7.20862 30.9423 5.91244 34.5445 6.21388 37.9809C6.51532 41.3871 7.81149 44.4014 10.1024 47.0239C12.3933 49.6766 15.061 51.6962 18.1055 53.0828C21.1802 54.4694 24.0287 55.012 26.6512 54.7105C26.9225 52.8115 26.7266 50.8672 26.0634 48.8778C25.4304 46.8883 24.6768 44.9591 23.8026 43.0902C22.8682 41.0706 22.19 39.262 21.768 37.6644C21.3459 36.0667 21.5871 34.7706 22.4914 33.7758L27.9172 28.35C27.9474 28.3199 27.9775 28.3048 28.0077 28.3048C28.068 28.3349 28.083 28.3651 28.0529 28.3952C27.3596 29.9024 27.5103 31.6055 28.505 33.5045C29.4998 35.4036 30.8412 37.1067 32.5292 38.6139C34.2474 40.121 35.845 41.0254 37.322 41.3268C36.9905 39.6689 36.2218 37.8301 35.0161 35.8105C34.0213 34.0622 33.2677 32.3742 32.7553 30.7464C32.2428 29.0885 32.5141 27.6718 33.5692 26.4962L39.0402 21.0251C39.0704 20.995 39.1156 20.995 39.1759 21.0251C39.206 21.0553 39.206 21.0854 39.1759 21.1155C38.5127 22.472 38.573 24.1299 39.3567 26.0892C40.1706 28.0184 41.3161 30.0079 42.7931 32.0577C44.3003 34.0773 45.7773 35.8859 47.2242 37.4835C48.6711 39.0811 49.7261 40.2115 50.3893 40.8746C51.1127 38.1919 50.9319 35.5995 49.8467 33.0976C48.7615 30.5957 47.4503 28.2294 45.913 25.9988C44.4962 23.949 43.4562 22.0801 42.7931 20.3921C42.1299 18.7041 42.356 17.2421 43.4713 16.0062L48.8972 10.5804H48.9876C49.0479 10.6105 49.063 10.6407 49.0328 10.6708C48.4299 11.8766 48.4752 13.2481 49.1685 14.7854C49.8919 16.3227 50.8716 17.9957 52.1075 19.8043C53.4338 21.7636 54.6094 23.8285 55.6342 25.9988C56.6893 28.1691 57.1414 30.4148 56.9907 32.7359Z" fill="#29DBFF"/>
<path d="M101.657 6.05885C102.17 5.45598 102.2 4.76268 101.748 3.97895C101.326 3.16507 100.738 2.39641 99.9841 1.67297C99.2306 0.949522 98.6428 0.406938 98.2207 0.0452153L93.5636 4.65718C94.1664 5.19976 94.9803 6.01364 96.0052 7.0988C97.0602 8.18397 97.4973 9.20885 97.3164 10.1734C97.3164 10.2036 97.3315 10.2337 97.3616 10.2639C97.3918 10.2639 97.4219 10.2488 97.4521 10.2187L101.657 6.05885ZM100.979 30.2038C100.466 28.4856 99.6526 26.9935 98.5372 25.7275C97.4521 24.4615 96.3368 23.3311 95.1913 22.3364C94.3473 21.5828 93.6389 20.8895 93.0662 20.2565C93.0963 22.4569 93.865 24.3108 95.3722 25.8179C96.8794 27.295 98.5222 28.5911 100.301 29.7065C100.512 29.8873 100.738 30.0531 100.979 30.2038ZM104.325 35.2679C103.692 36.1722 103.029 37.0464 102.335 37.8904H106.766L100.572 44.0849H96.5026L92.6593 47.9282C92.4784 47.7474 92.2975 47.5816 92.1167 47.4309C90.1573 45.351 88.5447 43.9342 87.2786 43.1806C86.0126 42.3969 57.3976 42.5024 56.1316 43.4971C56.011 43.6177 55.8754 43.7383 55.7247 43.8588L55.4986 44.0849H54.6847C53.3886 44.0548 51.4594 44.0397 48.8972 44.0397L55.0917 37.8904H89.042C90.4588 36.4435 91.8303 36.0818 93.1566 36.8053C94.4829 37.4986 96.186 38.9455 98.266 41.1459C98.5975 40.2416 98.3262 39.3675 97.4521 38.5234C96.6081 37.6794 95.4928 36.8053 94.1061 35.901C92.177 34.7254 90.4286 33.3086 88.8612 31.6507C87.3238 29.9928 86.6908 27.928 86.9621 25.4562C87.2334 22.9844 89.1626 19.8947 92.7497 16.1871L98.2207 10.7612C98.2509 10.7311 98.281 10.716 98.3112 10.716C98.3413 10.7462 98.3413 10.7763 98.3112 10.8065C97.9193 11.6505 98.0399 12.5096 98.6729 13.3837C99.336 14.2278 100.24 15.1471 101.386 16.1419C102.833 17.3777 104.189 18.8397 105.455 20.5278C106.751 22.1856 107.43 24.2203 107.49 26.6318C107.55 29.0132 106.495 31.8919 104.325 35.2679Z" fill="#29DBFF"/>
<path d="M112.961 47.9282C110.791 45.7277 108.59 44.1904 106.36 43.3163C104.129 42.412 102.185 42.412 100.527 43.3163C100.497 43.3464 100.466 43.3464 100.436 43.3163C100.406 43.2861 100.406 43.256 100.436 43.2258L105.772 37.8904C107.309 36.4737 109.193 36.0969 111.424 36.76C113.684 37.3931 115.975 38.7797 118.296 40.9199C119.02 38.5687 118.929 36.3983 118.025 34.4089C117.121 32.3892 115.99 30.5203 114.634 28.8022C113.277 27.084 112.253 25.4864 111.559 24.0093C110.896 22.5323 111.152 21.1608 112.328 19.8947L117.709 14.5141C117.739 14.484 117.769 14.484 117.799 14.5141C117.829 14.5443 117.844 14.5744 117.844 14.6045C117.151 16.0514 117.392 17.649 118.568 19.3974C119.743 21.1155 121.07 23.0146 122.547 25.0945C124.024 27.1443 124.838 29.39 124.988 31.8316C125.139 34.2732 123.843 36.9258 121.1 39.7895C118.357 42.5325 115.644 45.2455 112.961 47.9282ZM121.642 6.01364C122.185 5.41077 122.23 4.71746 121.778 3.93373C121.326 3.11986 120.723 2.3512 119.969 1.62775C119.216 0.904306 118.643 0.361722 118.251 0L113.594 4.65718C114.197 5.19976 115.011 6.01364 116.036 7.0988C117.091 8.15383 117.528 9.16364 117.347 10.1282C117.347 10.1584 117.362 10.1885 117.392 10.2187C117.422 10.2488 117.452 10.2488 117.482 10.2187L121.642 6.01364Z" fill="#29DBFF"/>
</svg>
